<svg width="636" height="240" viewBox="0 0 636 240" fill="none" xmlns="http://www.w3.org/2000/svg">
<rect x="5" y="5" width="625" height="230" fill="#EDDBCC"/>
<circle cx="5" cy="5" r="5" fill="#EDDBCC"/>
<circle cx="15" cy="235" r="5" fill="#EDDBCC"/>
<circle cx="5" cy="165" r="5" fill="#EDDBCC"/>
<circle cx="631" cy="155" r="5" fill="#EDDBCC"/>
<circle cx="5" cy="85" r="5" fill="#EDDBCC"/>
<circle cx="631" cy="75" r="5" fill="#EDDBCC"/>
<circle cx="5" cy="45" r="5" fill="#EDDBCC"/>
<circle cx="631" cy="35" r="5" fill="#EDDBCC"/>
<circle cx="5" cy="205" r="5" fill="#EDDBCC"/>
<circle cx="631" cy="195" r="5" fill="#EDDBCC"/>
<circle cx="5" cy="125" r="5" fill="#EDDBCC"/>
<circle cx="631" cy="115" r="5" fill="#EDDBCC"/>
<circle cx="5" cy="25" r="5" fill="#EDDBCC"/>
<circle cx="631" cy="15" r="5" fill="#EDDBCC"/>
<circle cx="5" cy="185" r="5" fill="#EDDBCC"/>
<circle cx="631" cy="175" r="5" fill="#EDDBCC"/>
<circle cx="5" cy="105" r="5" fill="#EDDBCC"/>
<circle cx="631" cy="95" r="5" fill="#EDDBCC"/>
<circle cx="5" cy="65" r="5" fill="#EDDBCC"/>
<circle cx="631" cy="55" r="5" fill="#EDDBCC"/>
<circle cx="5" cy="225" r="5" fill="#EDDBCC"/>
<circle cx="631" cy="215" r="5" fill="#EDDBCC"/>
<circle cx="5" cy="145" r="5" fill="#EDDBCC"/>
<circle cx="631" cy="135" r="5" fill="#EDDBCC"/>
<circle cx="5" cy="15" r="5" fill="#EDDBCC"/>
<circle cx="631" cy="5" r="5" fill="#EDDBCC"/>
<circle cx="5" cy="175" r="5" fill="#EDDBCC"/>
<circle cx="631" cy="165" r="5" fill="#EDDBCC"/>
<circle cx="5" cy="95" r="5" fill="#EDDBCC"/>
<circle cx="631" cy="85" r="5" fill="#EDDBCC"/>
<circle cx="5" cy="55" r="5" fill="#EDDBCC"/>
<circle cx="631" cy="45" r="5" fill="#EDDBCC"/>
<circle cx="5" cy="215" r="5" fill="#EDDBCC"/>
<circle cx="631" cy="205" r="5" fill="#EDDBCC"/>
<circle cx="5" cy="135" r="5" fill="#EDDBCC"/>
<circle cx="631" cy="125" r="5" fill="#EDDBCC"/>
<circle cx="5" cy="35" r="5" fill="#EDDBCC"/>
<circle cx="631" cy="25" r="5" fill="#EDDBCC"/>
<circle cx="5" cy="195" r="5" fill="#EDDBCC"/>
<circle cx="631" cy="185" r="5" fill="#EDDBCC"/>
<circle cx="5" cy="115" r="5" fill="#EDDBCC"/>
<circle cx="631" cy="105" r="5" fill="#EDDBCC"/>
<circle cx="5" cy="75" r="5" fill="#EDDBCC"/>
<circle cx="631" cy="65" r="5" fill="#EDDBCC"/>
<circle cx="5" cy="235" r="5" fill="#EDDBCC"/>
<circle cx="631" cy="225" r="5" fill="#EDDBCC"/>
<circle cx="5" cy="155" r="5" fill="#EDDBCC"/>
<circle cx="631" cy="145" r="5" fill="#EDDBCC"/>
<circle cx="323" cy="5" r="5" fill="#EDDBCC"/>
<circle cx="333" cy="235" r="5" fill="#EDDBCC"/>
<circle cx="163" cy="5" r="5" fill="#EDDBCC"/>
<circle cx="173" cy="235" r="5" fill="#EDDBCC"/>
<circle cx="481" cy="5" r="5" fill="#EDDBCC"/>
<circle cx="491" cy="235" r="5" fill="#EDDBCC"/>
<circle cx="85" cy="5" r="5" fill="#EDDBCC"/>
<circle cx="95" cy="235" r="5" fill="#EDDBCC"/>
<circle cx="403" cy="5" r="5" fill="#EDDBCC"/>
<circle cx="413" cy="235" r="5" fill="#EDDBCC"/>
<circle cx="243" cy="5" r="5" fill="#EDDBCC"/>
<circle cx="253" cy="235" r="5" fill="#EDDBCC"/>
<circle cx="561" cy="5" r="5" fill="#EDDBCC"/>
<circle cx="571" cy="235" r="5" fill="#EDDBCC"/>
<circle cx="45" cy="5" r="5" fill="#EDDBCC"/>
<circle cx="55" cy="235" r="5" fill="#EDDBCC"/>
<circle cx="363" cy="5" r="5" fill="#EDDBCC"/>
<circle cx="373" cy="235" r="5" fill="#EDDBCC"/>
<circle cx="203" cy="5" r="5" fill="#EDDBCC"/>
<circle cx="213" cy="235" r="5" fill="#EDDBCC"/>
<circle cx="521" cy="5" r="5" fill="#EDDBCC"/>
<circle cx="531" cy="235" r="5" fill="#EDDBCC"/>
<circle cx="125" cy="5" r="5" fill="#EDDBCC"/>
<circle cx="135" cy="235" r="5" fill="#EDDBCC"/>
<circle cx="443" cy="5" r="5" fill="#EDDBCC"/>
<circle cx="453" cy="235" r="5" fill="#EDDBCC"/>
<circle cx="283" cy="5" r="5" fill="#EDDBCC"/>
<circle cx="293" cy="235" r="5" fill="#EDDBCC"/>
<circle cx="601" cy="5" r="5" fill="#EDDBCC"/>
<circle cx="611" cy="235" r="5" fill="#EDDBCC"/>
<circle cx="25" cy="5" r="5" fill="#EDDBCC"/>
<circle cx="35" cy="235" r="5" fill="#EDDBCC"/>
<circle cx="343" cy="5" r="5" fill="#EDDBCC"/>
<circle cx="353" cy="235" r="5" fill="#EDDBCC"/>
<circle cx="183" cy="5" r="5" fill="#EDDBCC"/>
<circle cx="193" cy="235" r="5" fill="#EDDBCC"/>
<circle cx="501" cy="5" r="5" fill="#EDDBCC"/>
<circle cx="511" cy="235" r="5" fill="#EDDBCC"/>
<circle cx="105" cy="5" r="5" fill="#EDDBCC"/>
<circle cx="115" cy="235" r="5" fill="#EDDBCC"/>
<circle cx="423" cy="5" r="5" fill="#EDDBCC"/>
<circle cx="433" cy="235" r="5" fill="#EDDBCC"/>
<circle cx="263" cy="5" r="5" fill="#EDDBCC"/>
<circle cx="273" cy="235" r="5" fill="#EDDBCC"/>
<circle cx="581" cy="5" r="5" fill="#EDDBCC"/>
<circle cx="591" cy="235" r="5" fill="#EDDBCC"/>
<circle cx="65" cy="5" r="5" fill="#EDDBCC"/>
<circle cx="75" cy="235" r="5" fill="#EDDBCC"/>
<circle cx="383" cy="5" r="5" fill="#EDDBCC"/>
<circle cx="393" cy="235" r="5" fill="#EDDBCC"/>
<circle cx="223" cy="5" r="5" fill="#EDDBCC"/>
<circle cx="233" cy="235" r="5" fill="#EDDBCC"/>
<circle cx="541" cy="5" r="5" fill="#EDDBCC"/>
<circle cx="551" cy="235" r="5" fill="#EDDBCC"/>
<circle cx="145" cy="5" r="5" fill="#EDDBCC"/>
<circle cx="155" cy="235" r="5" fill="#EDDBCC"/>
<circle cx="463" cy="5" r="5" fill="#EDDBCC"/>
<circle cx="473" cy="235" r="5" fill="#EDDBCC"/>
<circle cx="303" cy="5" r="5" fill="#EDDBCC"/>
<circle cx="313" cy="235" r="5" fill="#EDDBCC"/>
<circle cx="621" cy="5" r="5" fill="#EDDBCC"/>
<circle cx="631" cy="235" r="5" fill="#EDDBCC"/>
<circle cx="15" cy="5" r="5" fill="#EDDBCC"/>
<circle cx="25" cy="235" r="5" fill="#EDDBCC"/>
<circle cx="333" cy="5" r="5" fill="#EDDBCC"/>
<circle cx="343" cy="235" r="5" fill="#EDDBCC"/>
<circle cx="173" cy="5" r="5" fill="#EDDBCC"/>
<circle cx="183" cy="235" r="5" fill="#EDDBCC"/>
<circle cx="491" cy="5" r="5" fill="#EDDBCC"/>
<circle cx="501" cy="235" r="5" fill="#EDDBCC"/>
<circle cx="95" cy="5" r="5" fill="#EDDBCC"/>
<circle cx="105" cy="235" r="5" fill="#EDDBCC"/>
<circle cx="413" cy="5" r="5" fill="#EDDBCC"/>
<circle cx="423" cy="235" r="5" fill="#EDDBCC"/>
<circle cx="253" cy="5" r="5" fill="#EDDBCC"/>
<circle cx="263" cy="235" r="5" fill="#EDDBCC"/>
<circle cx="571" cy="5" r="5" fill="#EDDBCC"/>
<circle cx="581" cy="235" r="5" fill="#EDDBCC"/>
<circle cx="55" cy="5" r="5" fill="#EDDBCC"/>
<circle cx="65" cy="235" r="5" fill="#EDDBCC"/>
<circle cx="373" cy="5" r="5" fill="#EDDBCC"/>
<circle cx="383" cy="235" r="5" fill="#EDDBCC"/>
<circle cx="213" cy="5" r="5" fill="#EDDBCC"/>
<circle cx="223" cy="235" r="5" fill="#EDDBCC"/>
<circle cx="531" cy="5" r="5" fill="#EDDBCC"/>
<circle cx="541" cy="235" r="5" fill="#EDDBCC"/>
<circle cx="135" cy="5" r="5" fill="#EDDBCC"/>
<circle cx="145" cy="235" r="5" fill="#EDDBCC"/>
<circle cx="453" cy="5" r="5" fill="#EDDBCC"/>
<circle cx="463" cy="235" r="5" fill="#EDDBCC"/>
<circle cx="293" cy="5" r="5" fill="#EDDBCC"/>
<circle cx="303" cy="235" r="5" fill="#EDDBCC"/>
<circle cx="611" cy="5" r="5" fill="#EDDBCC"/>
<circle cx="621" cy="235" r="5" fill="#EDDBCC"/>
<circle cx="35" cy="5" r="5" fill="#EDDBCC"/>
<circle cx="45" cy="235" r="5" fill="#EDDBCC"/>
<circle cx="353" cy="5" r="5" fill="#EDDBCC"/>
<circle cx="363" cy="235" r="5" fill="#EDDBCC"/>
<circle cx="193" cy="5" r="5" fill="#EDDBCC"/>
<circle cx="203" cy="235" r="5" fill="#EDDBCC"/>
<circle cx="511" cy="5" r="5" fill="#EDDBCC"/>
<circle cx="521" cy="235" r="5" fill="#EDDBCC"/>
<circle cx="115" cy="5" r="5" fill="#EDDBCC"/>
<circle cx="125" cy="235" r="5" fill="#EDDBCC"/>
<circle cx="433" cy="5" r="5" fill="#EDDBCC"/>
<circle cx="443" cy="235" r="5" fill="#EDDBCC"/>
<circle cx="273" cy="5" r="5" fill="#EDDBCC"/>
<circle cx="283" cy="235" r="5" fill="#EDDBCC"/>
<circle cx="591" cy="5" r="5" fill="#EDDBCC"/>
<circle cx="601" cy="235" r="5" fill="#EDDBCC"/>
<circle cx="75" cy="5" r="5" fill="#EDDBCC"/>
<circle cx="85" cy="235" r="5" fill="#EDDBCC"/>
<circle cx="393" cy="5" r="5" fill="#EDDBCC"/>
<circle cx="403" cy="235" r="5" fill="#EDDBCC"/>
<circle cx="233" cy="5" r="5" fill="#EDDBCC"/>
<circle cx="243" cy="235" r="5" fill="#EDDBCC"/>
<circle cx="551" cy="5" r="5" fill="#EDDBCC"/>
<circle cx="561" cy="235" r="5" fill="#EDDBCC"/>
<circle cx="155" cy="5" r="5" fill="#EDDBCC"/>
<circle cx="165" cy="235" r="5" fill="#EDDBCC"/>
<circle cx="473" cy="5" r="5" fill="#EDDBCC"/>
<circle cx="483" cy="235" r="5" fill="#EDDBCC"/>
<circle cx="313" cy="5" r="5" fill="#EDDBCC"/>
<circle cx="323" cy="235" r="5" fill="#EDDBCC"/>
</svg>
