<svg width="247" height="241" viewBox="0 0 247 241" fill="none" xmlns="http://www.w3.org/2000/svg">
<path d="M56.8165 36.6894C56.4165 8.28943 72.9832 0.856092 81.3165 0.689425C103.817 -2.81058 118.817 6.68943 119.317 36.6894C119.817 66.6894 102.317 74.6894 94.8165 78.6894C87.3165 82.6894 57.3165 72.1894 56.8165 36.6894Z" fill="#00944E"/>
<path d="M155.317 28.1894C164.189 -2.86412 184.564 3.8366 195.759 12.5302C197.519 13.8969 199.348 15.1851 201.059 16.6124C214.214 27.5853 220.09 58.8184 201.817 68.1894C182.317 78.1894 172.317 80.6894 165.817 78.6894C159.317 76.6894 143.317 70.1894 155.317 28.1894Z" fill="#00944E"/>
<path d="M6.81652 128.689C-10.7835 107.889 9.81652 91.6894 22.3165 86.1894C37.8165 78.1894 43.3165 80.6894 58.3165 92.1894C71.5248 102.316 73.8165 141.189 60.3165 146.189C46.8165 151.189 28.8165 154.689 6.81652 128.689Z" fill="#00944E"/>
<path d="M98.8165 92.1894C122.417 67.7894 150.15 82.5228 161.317 92.6894C167.65 99.5228 185.817 113.889 207.817 116.689C229.817 119.489 232.817 126.189 241.317 135.689C255.717 155.289 235.317 171.523 223.317 176.689C142.317 214.689 160.317 215.689 135.817 232.689C118.809 244.49 98.8165 246.189 94.8165 221.189C90.8165 196.189 102.317 184.689 99.3165 163.689C96.3165 142.689 91.3165 139.689 90.3165 120.689C89.5165 105.489 95.8165 95.1894 98.8165 92.1894Z" fill="#00944E"/>
</svg>
